<?xml version="1.0" standalone="no"?>
<!DOCTYPE svg PUBLIC "-//W3C//DTD SVG 20010904//EN"
 "http://www.w3.org/TR/2001/REC-SVG-20010904/DTD/svg10.dtd">
<svg version="1.0" xmlns="http://www.w3.org/2000/svg"
 width="400.000000pt" height="400.000000pt" viewBox="0 0 400.000000 400.000000"
 preserveAspectRatio="xMidYMid meet">
<metadata>
Created by potrace 1.14, written by Peter Selinger 2001-2017
</metadata>
<g transform="translate(0.000000,400.000000) scale(0.100000,-0.100000)"
fill="#000000" stroke="none">
<path d="M1828 3994 c-2 -2 -30 -6 -61 -9 -89 -7 -295 -52 -393 -85 -627 -212
-1114 -717 -1293 -1341 -59 -206 -76 -335 -75 -564 0 -189 6 -246 39 -420 38
-199 156 -477 284 -673 276 -419 716 -731 1191 -844 194 -46 281 -55 498 -53
215 3 224 4 382 31 14 3 70 17 125 31 344 89 648 273 924 556 l75 77 0 265 c1
146 -1 265 -4 265 -3 0 -18 -26 -35 -57 -120 -229 -379 -497 -616 -635 -117
-69 -317 -155 -399 -173 -8 -2 -42 -10 -75 -18 -33 -8 -80 -18 -105 -22 -25
-4 -54 -9 -65 -12 -53 -13 -366 -11 -455 2 -512 77 -946 358 -1209 783 -130
209 -218 454 -247 684 -10 81 -11 345 -1 423 70 567 419 1060 934 1319 127 63
262 108 459 151 92 20 369 27 494 12 99 -12 110 -14 183 -31 492 -115 905
-440 1134 -891 73 -143 138 -339 157 -470 4 -22 8 -51 11 -65 12 -58 14 -206
14 -1192 l1 -1038 150 0 151 0 -4 1113 c-2 611 -7 1130 -11 1152 -22 126 -52
253 -83 349 -162 507 -530 935 -1008 1174 -183 91 -398 160 -579 187 -23 4
-54 9 -71 11 -38 6 -412 13 -417 8z"/>
<path d="M1928 3545 c-2 -2 -32 -5 -68 -8 -184 -16 -337 -61 -525 -153 -304
-148 -549 -392 -703 -699 -71 -144 -133 -348 -149 -495 -10 -86 -9 -309 1
-385 75 -585 486 -1086 1041 -1270 58 -19 120 -37 137 -40 17 -3 34 -8 38 -10
3 -2 29 -7 56 -10 27 -4 76 -10 109 -15 61 -8 296 -5 350 5 17 3 46 8 65 11
72 12 87 15 145 30 422 108 821 448 1004 857 47 104 105 286 95 296 -9 9 -297
6 -308 -4 -7 -5 -20 -35 -30 -65 -44 -130 -147 -307 -236 -404 -260 -285 -592
-431 -960 -421 -131 4 -164 8 -274 36 -398 100 -724 395 -861 779 -52 147 -68
244 -69 415 0 140 7 203 33 308 127 496 548 864 1056 925 95 11 262 7 345 -8
33 -6 72 -13 87 -16 53 -10 178 -57 258 -96 130 -65 214 -126 326 -237 142
-143 241 -298 294 -461 9 -30 22 -59 27 -65 9 -10 307 -15 313 -5 6 10 -41
161 -80 255 -77 188 -181 341 -335 495 -251 253 -567 406 -915 446 -52 6 -263
13 -267 9z"/>
<path d="M1869 3086 c-2 -2 -22 -6 -44 -9 -138 -20 -308 -88 -437 -174 -94
-63 -231 -199 -291 -291 -67 -101 -124 -226 -154 -340 -21 -79 -26 -125 -29
-250 -2 -83 -1 -158 2 -166 5 -12 146 -14 920 -14 504 0 918 -3 922 -7 11 -10
-44 -157 -83 -224 -143 -244 -382 -383 -660 -385 -60 -1 -128 2 -150 5 -69 11
-191 57 -266 101 -91 54 -212 174 -263 261 -31 55 -44 67 -65 68 -14 1 -90 2
-168 3 -167 1 -158 16 -83 -140 151 -312 437 -531 782 -599 70 -13 335 -16
383 -3 11 3 38 9 60 13 44 9 43 9 65 18 8 3 33 11 55 18 110 33 273 132 379
230 180 166 316 433 341 669 8 75 5 263 -5 274 -8 11 -187 13 -920 13 -500 0
-913 2 -916 6 -12 12 37 144 84 227 92 163 250 291 432 351 84 27 106 31 225
34 90 3 127 -1 202 -20 209 -53 381 -183 490 -370 l29 -50 165 0 c193 0 183
-13 109 141 -152 314 -423 521 -785 600 -34 7 -319 16 -326 10z"/>
</g>
</svg>
